<?xml version="1.0" encoding="iso-8859-1"?>
<!-- Uploaded to: SVG Repo, www.svgrepo.com, Generator: SVG Repo Mixer Tools -->
<svg fill="#000000" height="800px" width="800px" version="1.1" id="Layer_1" xmlns="http://www.w3.org/2000/svg" xmlns:xlink="http://www.w3.org/1999/xlink" 
	 viewBox="0 0 512.002 512.002" xml:space="preserve">
<g>
	<g>
		<path d="M503.815,297.93c-7.954,0-11.682-3.61-16.841-8.605c-6.08-5.887-13.646-13.213-28.224-13.213s-22.144,7.327-28.224,13.213
			c-5.159,4.996-8.887,8.605-16.841,8.605c-3.619,0-6.564-0.731-9.265-2.302c-3.91-2.27-8.916-0.944-11.185,2.963
			c-2.27,3.907-0.944,8.915,2.963,11.185c5.231,3.039,10.951,4.516,17.488,4.516c14.578,0,22.145-7.327,28.225-13.213
			c5.159-4.995,8.887-8.605,16.84-8.605s11.681,3.61,16.84,8.605c6.08,5.887,13.647,13.213,28.225,13.213
			c4.52,0,8.182-3.663,8.182-8.182C511.997,301.592,508.334,297.93,503.815,297.93z"/>
	</g>
</g>
<g>
	<g>
		<path d="M382.42,278.775c-4.223-1.792-8.734-2.664-13.789-2.664c-14.577,0-22.143,7.327-28.221,13.215
			c-3.727,3.609-6.714,6.484-11.077,7.809c-19.295-66.416,5.086-140.929,5.341-141.694c0.896-2.673,0.352-5.619-1.439-7.797
			c-1.791-2.179-4.575-3.28-7.372-2.916c-30.237,3.927-57.745,11.651-81.758,22.958c-4.088,1.925-5.841,6.8-3.916,10.888
			c1.924,4.088,6.797,5.841,10.888,3.916c19.161-9.023,40.792-15.62,64.449-19.666c-6.204,23.93-16.881,78.057-4.042,130.834
			c-1.56-1.25-3.079-2.718-4.747-4.332c-6.079-5.887-13.644-13.213-28.22-13.213s-22.142,7.327-28.22,13.215
			c-5.158,4.995-8.885,8.604-16.836,8.604c-7.95,0-11.675-3.609-16.833-8.604c-6.078-5.888-13.642-13.215-28.217-13.215
			c-14.576,0-22.142,7.327-28.22,13.215c-2.116,2.05-3.995,3.861-6.021,5.29c1.887-6.966,4.989-16.36,9.973-26.925
			c9.588-20.325,28.34-49.319,63.221-72.021c3.788-2.464,4.859-7.533,2.395-11.321c-2.466-3.788-7.535-4.859-11.321-2.395
			c-59.825,38.934-77.146,94.067-81.717,114.892c-3.902-1.428-6.73-4.158-10.203-7.521c-6.079-5.887-13.644-13.215-28.221-13.215
			c-14.576,0-22.142,7.327-28.22,13.215c-5.158,4.995-8.885,8.604-16.836,8.604c-7.95,0-11.676-3.609-16.834-8.604
			c-6.078-5.887-13.643-13.215-28.219-13.215c-4.52,0-8.182,3.663-8.182,8.182c0,4.519,3.662,8.183,8.182,8.183
			c7.951,0,11.677,3.609,16.835,8.604c6.078,5.887,13.643,13.214,28.218,13.214c14.576,0,22.142-7.327,28.22-13.214
			c5.158-4.995,8.885-8.604,16.836-8.604c7.952,0,11.678,3.61,16.838,8.605c6.079,5.887,13.644,13.213,28.22,13.213
			c14.576,0,22.142-7.327,28.22-13.214c5.158-4.995,8.885-8.604,16.836-8.604c7.95,0,11.675,3.609,16.833,8.604
			c6.078,5.888,13.642,13.214,28.217,13.214c14.576,0,22.142-7.327,28.22-13.214c5.158-4.995,8.885-8.604,16.836-8.604
			c7.952,0,11.678,3.609,16.836,8.604c6.072,5.88,13.629,13.196,28.174,13.212c0.015,0,0.031,0.003,0.046,0.003
			c0.014,0,0.028-0.003,0.043-0.003c14.55-0.014,22.107-7.331,28.18-13.212c5.159-4.995,8.886-8.604,16.837-8.604
			c2.816,0,5.235,0.446,7.397,1.364c4.159,1.764,8.963-0.176,10.728-4.335S386.581,280.54,382.42,278.775z"/>
	</g>
</g>
<g>
	<g>
		<path d="M503.82,244.883c-7.958,0-11.687-3.61-16.847-8.607c-6.079-5.886-13.644-13.211-28.219-13.211
			c-14.583,0-22.15,7.328-28.23,13.216c-5.159,4.994-8.886,8.603-16.836,8.603c-7.952,0-11.678-3.609-16.836-8.605
			c-6.078-5.887-13.643-13.213-28.219-13.213s-22.142,7.327-28.22,13.214c-2.527,2.448-4.914,4.76-7.57,6.303
			c-3.908,2.269-5.234,7.278-2.964,11.184c2.269,3.907,7.278,5.233,11.185,2.963c4.383-2.547,7.757-5.815,10.733-8.697
			c5.159-4.995,8.886-8.604,16.836-8.604c7.951,0,11.677,3.609,16.835,8.604c6.079,5.887,13.643,13.215,28.22,13.215
			c14.575,0,22.141-7.326,28.219-13.211c5.16-4.996,8.888-8.607,16.846-8.607c7.951,0,11.677,3.609,16.836,8.603
			c6.081,5.888,13.649,13.216,28.231,13.216c4.52,0,8.182-3.663,8.182-8.182C512.002,248.546,508.34,244.883,503.82,244.883z"/>
	</g>
</g>
<g>
	<g>
		<path d="M134.089,242.58c-2.658-1.544-5.043-3.855-7.57-6.303c-6.079-5.887-13.644-13.215-28.22-13.215
			c-14.576,0-22.142,7.327-28.22,13.215c-5.158,4.995-8.885,8.604-16.836,8.604c-7.951,0-11.677-3.609-16.835-8.604
			c-6.079-5.887-13.643-13.215-28.22-13.215c-4.52,0-8.182,3.663-8.182,8.182c0,4.519,3.661,8.183,8.181,8.183
			c7.952,0,11.678,3.609,16.836,8.604c6.078,5.887,13.643,13.215,28.219,13.215c14.576,0,22.142-7.327,28.22-13.215
			c5.158-4.995,8.885-8.604,16.836-8.604c7.951,0,11.677,3.609,16.836,8.604c2.976,2.882,6.349,6.15,10.733,8.697
			c3.909,2.27,8.916,0.944,11.185-2.963C139.322,249.859,137.996,244.85,134.089,242.58z"/>
	</g>
</g>
<g>
	<g>
		<path d="M143.35,350.98c-7.952,0-11.678-3.609-16.836-8.604c-6.079-5.887-13.644-13.214-28.221-13.214
			c-14.576,0-22.142,7.327-28.22,13.214c-5.158,4.995-8.885,8.604-16.836,8.604c-7.95,0-11.676-3.609-16.834-8.604
			c-6.078-5.887-13.643-13.214-28.219-13.214c-4.52,0-8.182,3.663-8.182,8.182c0,4.519,3.662,8.182,8.182,8.182
			c7.951,0,11.677,3.609,16.835,8.604c6.078,5.887,13.643,13.215,28.218,13.215c14.576,0,22.142-7.327,28.22-13.215
			c5.158-4.995,8.885-8.604,16.836-8.604c7.952,0,11.678,3.61,16.838,8.605c6.079,5.887,13.644,13.213,28.22,13.213
			c4.52,0,8.182-3.663,8.182-8.182C151.532,354.643,147.87,350.98,143.35,350.98z"/>
	</g>
</g>
<g>
	<g>
		<path d="M503.815,350.98c-7.954,0-11.682-3.61-16.842-8.605c-6.079-5.887-13.645-13.213-28.223-13.213
			s-22.144,7.327-28.222,13.213c-5.159,4.995-8.887,8.605-16.842,8.605c-7.951,0-11.678-3.609-16.836-8.604
			c-6.079-5.887-13.644-13.214-28.221-13.214s-22.143,7.327-28.221,13.213c-5.159,4.995-8.886,8.605-16.837,8.605
			s-11.678-3.61-16.837-8.605c-6.079-5.887-13.644-13.213-28.22-13.213s-22.142,7.327-28.22,13.214
			c-5.158,4.995-8.885,8.604-16.836,8.604c-7.95,0-11.675-3.609-16.833-8.604c-6.078-5.887-13.642-13.214-28.217-13.214
			c-12.114,0-19.341,5.051-24.812,9.992c-3.354,3.028-3.618,8.203-0.589,11.556c3.027,3.354,8.203,3.616,11.556,0.589
			c4.048-3.656,7.613-5.773,13.845-5.773c7.95,0,11.675,3.609,16.833,8.604c6.078,5.887,13.642,13.215,28.217,13.215
			c14.576,0,22.142-7.327,28.22-13.215c5.158-4.995,8.885-8.604,16.836-8.604c7.951,0,11.678,3.609,16.836,8.604
			c6.079,5.887,13.644,13.215,28.221,13.215s22.143-7.327,28.221-13.213c5.159-4.995,8.886-8.605,16.838-8.605
			s11.678,3.61,16.837,8.605c6.079,5.887,13.644,13.213,28.22,13.213c14.578,0,22.145-7.327,28.225-13.213
			c5.159-4.995,8.887-8.605,16.84-8.605s11.681,3.61,16.84,8.605c6.08,5.887,13.647,13.213,28.225,13.213
			c4.52,0,8.182-3.663,8.182-8.182C511.997,354.643,508.334,350.98,503.815,350.98z"/>
	</g>
</g>
</svg>